<mxfile host="app.diagrams.net" modified="2024-06-11T14:33:23.971Z" agent="Mozilla/5.0 (Windows NT 10.0; Win64; x64) AppleWebKit/537.36 (KHTML, like Gecko) Chrome/125.0.0.0 Safari/537.36" etag="ls1xUPOcBNk9XhLPGAah" version="24.5.2" type="device">
  <diagram name="PÃ¡gina-1" id="8iQI2yRuVqVYYaAT_jJe">
    <mxGraphModel dx="880" dy="426" grid="1" gridSize="10" guides="1" tooltips="1" connect="1" arrows="1" fold="1" page="1" pageScale="1" pageWidth="827" pageHeight="1169" math="0" shadow="0">
      <root>
        <mxCell id="0" />
        <mxCell id="1" parent="0" />
        <mxCell id="9xk_EMlzZEelgR2O7g9H-2" value="" style="edgeStyle=orthogonalEdgeStyle;rounded=0;orthogonalLoop=1;jettySize=auto;html=1;" parent="1" source="jCPc-7MEmdEh8w35CGOo-1" target="jCPc-7MEmdEh8w35CGOo-9" edge="1">
          <mxGeometry relative="1" as="geometry" />
        </mxCell>
        <mxCell id="jCPc-7MEmdEh8w35CGOo-1" value="" style="ellipse;html=1;shape=startState;fillColor=#000000;strokeColor=#ff0000;" parent="1" vertex="1">
          <mxGeometry x="60" y="105" width="30" height="30" as="geometry" />
        </mxCell>
        <mxCell id="jCPc-7MEmdEh8w35CGOo-2" value="" style="edgeStyle=orthogonalEdgeStyle;html=1;verticalAlign=bottom;endArrow=open;endSize=8;strokeColor=#ff0000;rounded=0;" parent="1" source="jCPc-7MEmdEh8w35CGOo-1" target="jCPc-7MEmdEh8w35CGOo-9" edge="1">
          <mxGeometry relative="1" as="geometry">
            <mxPoint x="414" y="80" as="targetPoint" />
          </mxGeometry>
        </mxCell>
        <mxCell id="jCPc-7MEmdEh8w35CGOo-9" value="fill out the form" style="rounded=1;whiteSpace=wrap;html=1;arcSize=40;fontColor=#000000;fillColor=#ffffc0;strokeColor=#000000;" parent="1" vertex="1">
          <mxGeometry x="120" y="100" width="120" height="40" as="geometry" />
        </mxCell>
        <mxCell id="jCPc-7MEmdEh8w35CGOo-10" value="" style="edgeStyle=orthogonalEdgeStyle;html=1;verticalAlign=bottom;endArrow=open;endSize=8;strokeColor=#000000;rounded=0;" parent="1" source="jCPc-7MEmdEh8w35CGOo-9" target="jCPc-7MEmdEh8w35CGOo-11" edge="1">
          <mxGeometry relative="1" as="geometry">
            <mxPoint x="414" y="290" as="targetPoint" />
          </mxGeometry>
        </mxCell>
        <mxCell id="4TCGvJwYoMgSZ5hBDnby-1" style="edgeStyle=orthogonalEdgeStyle;rounded=0;orthogonalLoop=1;jettySize=auto;html=1;" parent="1" source="jCPc-7MEmdEh8w35CGOo-11" target="jCPc-7MEmdEh8w35CGOo-17" edge="1">
          <mxGeometry relative="1" as="geometry" />
        </mxCell>
        <mxCell id="jCPc-7MEmdEh8w35CGOo-11" value="save the data provided in the form to the database" style="rounded=1;whiteSpace=wrap;html=1;arcSize=40;fontColor=#000000;fillColor=#ffffc0;strokeColor=#000000;" parent="1" vertex="1">
          <mxGeometry x="280" y="95" width="120" height="50" as="geometry" />
        </mxCell>
        <mxCell id="jCPc-7MEmdEh8w35CGOo-17" value="" style="ellipse;html=1;shape=endState;fillColor=#000000;strokeColor=#ff0000;" parent="1" vertex="1">
          <mxGeometry x="440" y="105" width="30" height="30" as="geometry" />
        </mxCell>
      </root>
    </mxGraphModel>
  </diagram>
</mxfile>
